<svg xmlns="http://www.w3.org/2000/svg" width="1500" height="720" viewBox="0 0 1500 720"><style>text{font-family:Arial,"DejaVu Sans",sans-serif;fill:#172033}.t{font-size:24px;font-weight:bold}.h{font-size:14px;font-weight:bold}.s{font-size:12px}.ext{fill:#e8f1ff;stroke:#2563eb;rx:8}.proc{fill:#fff7ed;stroke:#f97316}.store{fill:#ecfdf5;stroke:#059669;rx:8}.arrow{stroke:#64748b;stroke-width:1.5;fill:none;marker-end:url(#a)}</style><defs><marker id="a" markerWidth="8" markerHeight="8" refX="7" refY="4" orient="auto"><path d="M0,0 L8,4 L0,8 z" fill="#64748b"/></marker></defs><rect width="1500" height="720" fill="white"/><text x="750" y="35" text-anchor="middle" class="t">DFD Level 1 — потоки информации KB Agent</text><rect x="30" y="120" width="150" height="65" class="ext"/><text x="105" y="148" text-anchor="middle" class="h">Постановщик</text><text x="105" y="167" text-anchor="middle" class="s">задача / seed</text><rect x="30" y="260" width="150" height="65" class="ext"/><text x="105" y="288" text-anchor="middle" class="h">OSINT Sources</text><text x="105" y="307" text-anchor="middle" class="s">pages / files / APIs</text><rect x="30" y="400" width="150" height="65" class="ext"/><text x="105" y="428" text-anchor="middle" class="h">Red Team</text><text x="105" y="447" text-anchor="middle" class="s">human review</text><g><circle cx="310" cy="150" r="55" class="proc"/><text x="310" y="145" text-anchor="middle" class="h">P1 Intake</text><text x="310" y="164" text-anchor="middle" class="s">classify</text><circle cx="500" cy="150" r="55" class="proc"/><text x="500" y="145" text-anchor="middle" class="h">P2 Plan</text><text x="500" y="164" text-anchor="middle" class="s">orchestrate</text><circle cx="690" cy="260" r="55" class="proc"/><text x="690" y="255" text-anchor="middle" class="h">P3 Capture</text><text x="690" y="274" text-anchor="middle" class="s">integrity</text><circle cx="880" cy="260" r="55" class="proc"/><text x="880" y="255" text-anchor="middle" class="h">P4 Parse</text><text x="880" y="274" text-anchor="middle" class="s">normalize</text><circle cx="1070" cy="260" r="55" class="proc"/><text x="1070" y="255" text-anchor="middle" class="h">P5 Extract</text><text x="1070" y="274" text-anchor="middle" class="s">resolve</text><circle cx="1260" cy="380" r="55" class="proc"/><text x="1260" y="375" text-anchor="middle" class="h">P6 Verify</text><text x="1260" y="394" text-anchor="middle" class="s">Red Team</text><circle cx="1260" cy="570" r="55" class="proc"/><text x="1260" y="565" text-anchor="middle" class="h">P7 Publish</text><text x="1260" y="584" text-anchor="middle" class="s">report / monitor</text></g><rect x="250" y="560" width="160" height="60" class="store"/><text x="330" y="596" text-anchor="middle" class="h">Case + Audit DB</text><rect x="610" y="420" width="160" height="60" class="store"/><text x="690" y="456" text-anchor="middle" class="h">Evidence Vault</text><rect x="800" y="420" width="160" height="60" class="store"/><text x="880" y="456" text-anchor="middle" class="h">Operational DB</text><rect x="990" y="420" width="160" height="60" class="store"/><text x="1070" y="456" text-anchor="middle" class="h">Entity Graph</text><rect x="1160" y="650" width="200" height="50" class="store"/><text x="1260" y="681" text-anchor="middle" class="h">Knowledge Base / Reports</text><path d="M180 152 H255" class="arrow"/><path d="M365 150 H445" class="arrow"/><path d="M555 150 V260 H635" class="arrow"/><path d="M180 292 H635" class="arrow"/><path d="M745 260 H825" class="arrow"/><path d="M935 260 H1015" class="arrow"/><path d="M1125 260 V380 H1205" class="arrow"/><path d="M180 432 H1205" class="arrow"/><path d="M690 315 V420" class="arrow"/><path d="M880 315 V420" class="arrow"/><path d="M1070 315 V420" class="arrow"/><path d="M1260 435 V515" class="arrow"/><path d="M1260 625 V650" class="arrow"/><path d="M1260 435 H1420 V150 H555" class="arrow"/><text x="1390" y="365" class="s">research gap → re-plan</text><path d="M310 205 V560" class="arrow"/></svg>
